<?xml version="1.0" encoding="UTF-8" standalone="no"?>
<!-- Created with Inkscape (http://www.inkscape.org/) -->

<svg
   xmlns:dc="http://purl.org/dc/elements/1.1/"
   xmlns:cc="http://creativecommons.org/ns#"
   xmlns:rdf="http://www.w3.org/1999/02/22-rdf-syntax-ns#"
   xmlns:svg="http://www.w3.org/2000/svg"
   xmlns="http://www.w3.org/2000/svg"
   xmlns:sodipodi="http://sodipodi.sourceforge.net/DTD/sodipodi-0.dtd"
   xmlns:inkscape="http://www.inkscape.org/namespaces/inkscape"
   width="845.09015"
   height="638.51392"
   id="svg4189"
   version="1.1"
   inkscape:version="0.48.1 "
   sodipodi:docname="Poland and Lithuania 1600.svg"
   style="display:inline;enable-background:new">
  <defs
     id="defs4191" />
  <sodipodi:namedview
     id="base"
     pagecolor="#ffffff"
     bordercolor="#666666"
     borderopacity="1.0"
     inkscape:pageopacity="0.0"
     inkscape:pageshadow="2"
     inkscape:zoom="0.98994949"
     inkscape:cx="104.40274"
     inkscape:cy="596.19035"
     inkscape:document-units="px"
     inkscape:current-layer="layer7"
     showgrid="false"
     fit-margin-top="5"
     fit-margin-left="5"
     fit-margin-right="5"
     fit-margin-bottom="5"
     inkscape:window-width="1366"
     inkscape:window-height="706"
     inkscape:window-x="-8"
     inkscape:window-y="-8"
     inkscape:window-maximized="1" />
  <metadata
     id="metadata4194">
    <rdf:RDF>
      <cc:Work
         rdf:about="">
        <dc:format>image/svg+xml</dc:format>
        <dc:type
           rdf:resource="http://purl.org/dc/dcmitype/StillImage" />
        <dc:title />
      </cc:Work>
    </rdf:RDF>
  </metadata>
  <g
     inkscape:groupmode="layer"
     id="layer3"
     inkscape:label="Sea"
     style="display:inline"
     transform="translate(5.2041332,5.7844262)">
    <rect
       style="fill:#d6f4f4;fill-opacity:1;stroke:#000000;stroke-width:0.99900001;stroke-miterlimit:4;stroke-opacity:1;stroke-dasharray:none;stroke-dashoffset:0"
       id="rect4216"
       width="585.71429"
       height="627.10901"
       x="0.49938935"
       y="-0.20839813" />
    <text
       xml:space="preserve"
       style="font-size:8px;font-style:normal;font-variant:normal;font-weight:normal;font-stretch:normal;text-align:start;line-height:125%;letter-spacing:0px;word-spacing:0px;writing-mode:lr-tb;text-anchor:start;fill:#000000;fill-opacity:1;stroke:none;font-family:sans-serif;-inkscape-font-specification:sans-serif"
       x="64.464287"
       y="27.321426"
       id="text5092"
       sodipodi:linespacing="125%"><tspan
         sodipodi:role="line"
         id="tspan5094"
         x="64.464287"
         y="27.321426">50km</tspan></text>
  </g>
  <g
     inkscape:groupmode="layer"
     id="layer6"
     inkscape:label="Russia"
     style="display:inline"
     transform="translate(5.2041332,5.7844262)">
    <path
       style="fill:#b4ffca;fill-opacity:1;stroke:#000000;stroke-width:1px;stroke-linecap:butt;stroke-linejoin:miter;stroke-opacity:1"
       d="m 507.60166,5.6533442 0.50507,24.7487378 -2.0203,17.677669 -21.21321,28.284272 -4.54568,60.609157 -17.67767,162.12948 31.8198,92.42896 88.89343,50.50763 183.84776,58.08377 -40.91118,66.16499 55.20125,65.92777 55.91553,-0.26786 0,-626.4451376 z"
       id="path3885"
       inkscape:connector-curvature="0"
       transform="translate(-5.2041332,-5.7844262)"
       sodipodi:nodetypes="cccccccccccccc" />
  </g>
  <g
     inkscape:groupmode="layer"
     id="layer5"
     inkscape:label="Sweden and Denmark"
     style="display:inline"
     transform="translate(5.2041332,5.7844262)">
    <path
       style="fill:#ff7e5c;fill-opacity:1;stroke:#000000;stroke-width:1px;stroke-linecap:butt;stroke-linejoin:miter;stroke-opacity:1"
       d="m 109.85409,225.73721 -5.3033,-4.04061 0,-6.81853 6.31345,-8.08122 4.54569,-5.05077 1.51523,-8.83883 -7.57615,-5.05076 -2.52538,-7.32361 -2.77792,-1.01015 -2.0203,0.50507 -0.25254,4.54569 -5.050764,-2.27284 -2.020305,-1.26269 0,-6.31346 4.545687,-2.27284 2.272842,-1.76777 4.79823,-1.01015 -0.25254,-5.3033 -1.01016,-3.03046 -3.28299,-1.76777 -5.55584,-1.01015 -2.020305,-4.29315 7.828685,-3.28299 4.79822,0.25254 3.03046,7.82868 5.05076,-0.50508 2.27285,-8.83883 4.54568,0.25254 4.04061,3.78807 1.26269,-1.51523 -1.01015,-10.10153 11.86929,-4.04061 4.29315,-2.27284 6.31345,1.26269 3.53554,3.283 10.10152,-5.80838 13.13199,5.05076 6.81853,7.32361 10.10152,8.83883 4.04061,3.03046 -1.51523,3.78807 -6.31345,-0.75761 -2.52538,-2.77792 -4.29315,0 -3.283,6.81853 -5.55583,3.53553 -2.77792,5.3033 -3.53554,0.25254 -5.05076,6.06092 -4.79823,-2.27285 -6.31345,0.75762 5.55584,6.31345 -1.01015,2.27284 -2.27285,0.25254 -4.54568,-4.29315 -7.07107,0.25254 -12.87944,4.04061 -5.30331,6.06092 -2.52538,10.6066 -1.76776,4.29315 0,5.05076 -2.77792,3.78807 -1.51523,0.75762 -0.25254,4.04061 z"
       id="path4739"
       inkscape:connector-curvature="0" />
    <g
       id="g3851"
       style="fill:#c3ccff;fill-opacity:1">
      <path
         inkscape:connector-curvature="0"
         id="path4741"
         d="m 144.95689,126.48972 -4.29315,-1.51523 -3.53553,-10.6066 -3.78807,-11.61676 -13.63706,1.01016 -1.51523,-5.050767 -5.05076,-1.010152 -1.2627,-2.020305 1.2627,-3.030458 6.06091,1.515229 6.31345,0.252538 5.3033,0.757614 5.05077,-1.010152 4.04061,-8.333759 5.3033,-1.767767 1.01015,-7.071067 5.05076,-0.505077 2.52539,6.060916 4.54568,7.071067 9.09137,2.77792 2.27285,0.505076 8.58629,9.596454 2.77792,3.78807 -2.27284,7.07107 -6.31345,-3.78808 -5.80838,-0.50507 -5.55584,0.75761 -5.05076,3.53554 -2.02031,5.80837 -3.78807,7.07107 z"
         style="fill:#c3ccff;fill-opacity:1;stroke:#000000;stroke-width:1px;stroke-linecap:butt;stroke-linejoin:miter;stroke-opacity:1" />
      <path
         inkscape:connector-curvature="0"
         id="path4743"
         d="m 186.87822,146.94531 -3.53553,-8.33376 -3.78807,-3.53554 3.53553,-7.3236 7.3236,2.52538 4.04062,3.03046 1.51522,5.05076 0,3.78807 5.80838,2.77792 -7.07107,2.02031 z"
         style="fill:#c3ccff;fill-opacity:1;stroke:#000000;stroke-width:1px;stroke-linecap:butt;stroke-linejoin:miter;stroke-opacity:1" />
      <path
         inkscape:connector-curvature="0"
         id="path4745"
         d="m 185.36299,93.407222 -3.28299,-6.313453 2.77792,-4.798225 5.55583,-0.252538 7.57615,1.767767 -1.01015,9.343911 -6.06092,-1.010152 z"
         style="fill:#c3ccff;fill-opacity:1;stroke:#000000;stroke-width:1px;stroke-linecap:butt;stroke-linejoin:miter;stroke-opacity:1" />
      <path
         inkscape:connector-curvature="0"
         id="path4747"
         d="m 494.21713,76.992244 -3.03045,8.333758 -11.36422,11.111678 -177.28177,52.52793 -44.19418,7.32361 -28.28427,17.42513 -6.81853,-3.53553 -1.51523,-18.18275 -5.55584,-5.05076 -2.27284,0 -6.56599,-14.89975 1.51523,-7.32361 5.80838,-2.27284 9.84898,1.51523 2.77792,-4.04061 -2.52538,-3.283 -10.35406,-0.50508 -9.34391,2.02031 -0.25254,-3.03046 3.03046,-3.03046 -1.01016,-3.78807 -4.54568,-4.54568 1.51523,-7.071072 8.33375,-3.282996 7.57615,2.77792 3.03046,-5.303301 -1.76777,-3.030458 -5.55584,-2.272843 -3.53553,4.04061 -6.06092,-0.757614 -3.03046,-6.81853 5.05077,-8.586296 0.50507,-4.545687 -2.0203,-2.272843 -0.50508,-5.303301 4.29315,-4.04061 5.55584,0 5.55584,1.767767 5.55584,-5.303301 6.31345,-3.282996 13.38452,-0.757614 2.02031,-4.04061 -5.3033,-5.808378 -0.50508,-4.545686 5.80838,0.505076 2.27284,6.313454 5.55584,1.010152 0.25254,-3.535534 -3.283,-3.535534 0.75762,-3.535533 6.81853,-3.282996 37.1231,0.252538 1.01015,-4.293148 -0.75761,-2.525382 -3.53553,-2.272843 -0.50508,-4.293148 1.51523,-1.010153 4.79822,1.767767 1.76777,4.798225 4.04061,4.293148 10.10153,-0.505076 0,-6.060916 1.26269,-2.020305 12.6269,7.828683 4.29315,-0.505077 0.50508,-3.535534 7.3236,-0.252538 0.25254,-2.020305 1.76777,-2.020305 5.55583,-1.767767 0.85679,1.921111 2.52538,-0.252538 0.25254,-2.77792 -0.50508,-3.282995 -0.75761,-2.2728437 2.27284,-1.7677669 2.02031,3.2829957 0.50507,4.0406099 1.26269,2.77792 1.76777,-1.010153 2.02031,-2.525381 0.75761,-0.757614 3.283,2.020305 2.77792,1.010152 1.76776,-2.020305 1.26269,-2.525381 2.27285,-1.262691 4.79822,4.293148 3.53554,1.515229 2.77792,-0.505076 3.53553,-1.010153 3.53553,4.545687 7.07107,2.020305 7.32361,2.777919 1.26269,0.252539 6.31345,-4.798225 6.81853,6.313453 10.35406,6.060916 6.06092,2.777919 11.11168,-0.757614 9.59645,0 7.3236,-0.505077 6.81853,0.252539 3.78807,2.777919 8.33376,-1.767767 5.80838,2.525382 4.54569,0.757614 1.76776,0.757614 6.06092,-12.879445 7.82868,6.565992 3.78807,6.313454 0,4.798224 -11.86929,5.808377 1.51523,7.323606 -3.78807,6.313454"
         style="fill:#c3ccff;fill-opacity:1;stroke:#000000;stroke-width:1px;stroke-linecap:butt;stroke-linejoin:miter;stroke-opacity:1"
         sodipodi:nodetypes="ccccccccccccccccccccccccccccccccccccccccccccccccccccccccccccccccccccccccccccccccccccccccccccccccccccccccccccccccccc" />
      <path
         inkscape:connector-curvature="0"
         id="path4749"
         d="m 269.45819,17.645781 -4.54568,-3.282995 0,-4.7982249 3.53553,-1.0101526 2.52538,4.2931485 z"
         style="fill:#c3ccff;fill-opacity:1;stroke:#000000;stroke-width:1px;stroke-linecap:butt;stroke-linejoin:miter;stroke-opacity:1" />
    </g>
  </g>
  <g
     inkscape:groupmode="layer"
     id="layer4"
     inkscape:label="Crown land"
     style="display:inline"
     transform="translate(5.2041332,5.7844262)">
    <path
       style="fill:#ffaeae;fill-opacity:1;stroke:#000000;stroke-width:1px;stroke-linecap:butt;stroke-linejoin:miter;stroke-opacity:1"
       d="M 138.57143,627.02031 55,555.71429 28.571429,483.57143 30,452.14286 l 5,-70.71429 0.714286,-18.57143 2.142857,-5 7.857143,-2.14285 10,-11.42858 8.571428,-13.57142 L 65,302.14286 70.714286,290.71429 75,285.71429 83.571429,267.14286 115,260 142.14286,245.71429 145,249.28571 144.28571,262.14286 150,272.85714 176.42857,296.42857 192.85714,377.14286 359.28571,342.85714 525,389.28571 l 15,-2.85714 7.14286,8.57143 12.14285,1.42857 9.28572,-7.14286 6.42857,2.85715 4.28571,7.14285 10,-5 8.57143,1.42858 2.85715,-10 L 605,385 l 16.42857,12.85714 0,16.42857 5.71429,7.14286 5.71428,-2.14286 3.57143,-5.71428 2.14286,-8.57143 5.71428,-6.42857 11.42858,5 12.14285,-1.42857 11.42858,6.42857 -8.57143,12.85714 1.42857,5 10.71428,0.71429 7.85715,7.14285 9.28571,0 17.85714,7.14286 L 720,452.14286 725,455 l 6.42857,-2.85714 4.28572,-4.28572 7.85714,1.42857 10,0 18.57143,5 5,-2.14285 L 781.42857,440 790,437.85714 l 11.42857,5 -6.42857,5.71429 2.14286,13.57143 5.71428,13.57143 -0.71428,7.85714 -7.85714,15 -7.85715,10 -7.85714,6.42857 -17.85714,25 -16.42857,-2.14286 -3.57143,10 5,9.28572 17.85714,8.57143 5,6.42857 L 770,585 l 10.71429,9.28571 2.85714,12.85715 3.57143,6.42857 1.42857,3.57143 -12.14286,3.57143 0,5.71428 z"
       id="path4727"
       inkscape:connector-curvature="0"
       sodipodi:nodetypes="ccccccccccccccccccccccccccccccccccccccccccccccccccccccccccccccccccccccccccccccccc" />
  </g>
  <g
     inkscape:groupmode="layer"
     id="layer2"
     inkscape:label="Duchies"
     style="display:inline"
     transform="translate(5.2041332,5.7844262)">
    <path
       style="fill:#ffaef6;fill-opacity:1;stroke:#000000;stroke-width:1px;stroke-linecap:butt;stroke-linejoin:miter;stroke-opacity:1"
       d="M 0.29586683,588.15301 11.428571,575 l 10,-18.57143 5.714286,-18.57143 L 30,520 l -0.714286,-8.57143 3.571429,4.28572 -2.142857,36.42857 L 22.142857,570 0.71428572,595.71429 z"
       id="path4209"
       inkscape:connector-curvature="0"
       sodipodi:nodetypes="ccccccccccc" />
    <path
       style="fill:#ffaef6;fill-opacity:1;stroke:#000000;stroke-width:1px;stroke-linecap:butt;stroke-linejoin:miter;stroke-opacity:1"
       d="m 29.285714,460 -2.142857,-20 -1.428571,-25 5,-9.28571 2.142857,-14.28572 0.714286,-9.28571 5,-2.14286 2.142857,-5 12.142857,-2.14286 3.571428,-7.85714 0,-12.85714 L 53.571429,345 l 5.714285,-8.57143 2.857143,-13.57143 2.142857,-20 9.285715,-2.85714 5,17.14286 1.428571,6.42857 -2.857143,0.71428 -8.571428,-3.57142 -1.428572,3.57142 5,7.85715 5.714286,3.57143 L 75,340 l 2.857143,2.85714 5.714286,0 7.142857,-9.28571 8.571428,-9.28572 -0.714285,-5 12.857141,-6.42857 10,-8.57143 10.71429,1.42858 13.57143,5 15,-6.42858 16.42857,-8.57142 7.14285,13.57142 3.57143,7.14286 2.14286,15.71429 10,8.57143 8.57143,2.85714 7.85714,9.28571 14.28572,-2.14285 17.14285,-10 L 270,317.85714 l 1.42857,-6.42857 -2.85714,-22.85714 -2.14286,-16.42857 2.85714,-11.42857 -4.28571,-5 2.14286,-26.42858 5.71428,-28.57142 0.71429,-18.57143 6.42857,-5 L 275,170 267.14286,167.14286 260,170 257.85714,182.14286 250,184.28571 244.28571,180 242.14286,170 235,175 l -4.95668,-1.29859 6.38525,-9.4157 7.14286,-6.42857 -6.42857,-11.42857 2.85714,-8.57143 5,-0.71428 5.71429,5.71428 2.85714,-2.85714 0,-7.14286 L 250,125 l -1.42857,-4.28571 9.28571,2.14285 5.71429,10.71429 4.28571,-6.42857 4.28572,-0.71429 3.57143,3.57143 0.71428,-10 2.85714,-4.28571 8.57143,7.14285 8.57143,-0.71428 14.28572,-20.71429 12.85714,0 0,9.28572 -3.57143,12.14285 3.57143,4.28572 21.42857,-5 2.14286,-5 1.42857,-10.71429 10.71428,5 5,-3.57143 7.14286,2.14286 4.28572,3.57143 L 385,98.571428 l 11.42857,-4.285714 10.71429,5 4.28571,-0.714286 0,-8.571429 11.42857,-5 L 425,73.571428 l 0.71429,-5 7.14285,10 4.28572,0 5,5 8.57143,3.571429 30,55.714283 0,32.85715 7.85714,18.57142 -6.42857,7.14286 -2.85715,10.71429 7.14286,16.42857 -10,5 -5,5 0,25 2.85714,6.42857 0.71429,7.14286 -2.14286,5 17.14286,7.14285 10.71429,9.28572 5,5.71428 0,7.85715 -4.28572,2.85714 -2.85714,15 3.57143,7.14286 -7.85715,12.85714 -0.71428,12.14286 4.28571,3.57143 7.85715,-9.28572 5.71428,0 7.14286,11.42857 2.85714,7.85715 3.57143,7.14285 11.42857,-1.42857 4.28572,5.71429 -2.85715,3.57143 -2.85714,6.42857 7.14286,17.14285 0.71428,12.85715 -4.28571,13.57143 -4.28572,11.42857 -12.14285,13.57143 -7.14286,2.85714 -11.42857,-2.85714 -6.42857,7.14285 L 493.57143,485 485,492.14286 479.28571,500 470,500.71429 l -4.28571,-3.57143 -10,1.42857 -2.85715,9.28571 L 440,515 l -7.14286,-4.28571 -22.14285,2.14285 -11.42858,-15.71428 -7.85714,-15 -5,-4.28572 -5,1.42857 -7.85714,-10.71428 -7.14286,-7.14286 -0.71428,-8.57143 6.42857,-5 -2.14286,-4.28571 -7.14286,0 -5.71428,6.42857 -6.42857,2.14286 -9.28572,2.14285 -7.85714,-5 L 320,447.85714 315,443.57143 309.28571,431.42857 305,420 l -4.28571,-1.42857 -8.57143,3.57143 -3.57143,2.85714 -5,6.42857 -2.14286,2.14286 -12.14286,-2.85714 -5.71428,-1.42858 -11.42857,4.28572 -7.85715,2.14286 -2.14285,-5 L 231.42857,430 222.14286,425 215,425.71429 l -4.28571,3.57142 -11.42858,-5.71428 -23.57142,1.42857 -4.28572,1.42857 -4.28571,-5 -20,5 -25.71429,-5.71428 -14.28571,-6.42858 L 100,400.71429 l 0,-8.57143 -2.857143,-6.42857 -8.571428,-3.57143 -2.857143,-10.71429 -7.142857,-2.85714 L 72.857143,365 l -6.428572,1.42857 -2.142857,12.85714 8.571429,12.14286 2.142857,7.85714 1.428572,27.85715 -13.571429,6.42857 -7.142857,0 -5,7.14286 L 45,442.85714 l -3.571429,1.42857 -2.857142,6.42858 2.142857,7.14285 L 35,465 l -4.285714,1.42857 z"
       id="path4211"
       inkscape:connector-curvature="0"
       sodipodi:nodetypes="ccccccccccccccccccccccccccccccccccccccccccccccccccccccccccccccccccccccccccccccccccccccccccccccccccccccccccccccccccccccccccccccccccccccccccccccccccccccccccccccccccccccccccccccccccccccccccccccccccccccccccccccccccccccc" />
    <path
       style="fill:#ffaef6;fill-opacity:1;stroke:#000000;stroke-width:1px;stroke-linecap:butt;stroke-linejoin:miter;stroke-opacity:1"
       d="m 28.571429,484.28571 15,5 8.571428,12.85715 4.285714,15.71428 2.857143,13.57143 6.428572,16.42857 10,10 6.428571,3.57143 7.857143,2.14286 4.285714,5.71428 2.142858,2.14286 L 107.14286,570 l 4.28571,9.28571 16.42857,4.28572 5,0 5.71429,6.42857 3.57143,12.14286 10,10 5,14.83412 -156.84699317,0.25254 0,-15.71429 5.41841887,-2.22952 10.0000003,6.42858 7.142857,1.42857 L 30,616.42857 l 7.142857,-10 -0.714286,-22.14286 2.857143,-5.71428 5,0 0,-19.28572 L 40,555.71429 39.285714,531.42857 37.142857,518.57143 35,510.71429 31.428571,500 29.285714,493.57143 z"
       id="path4213"
       inkscape:connector-curvature="0"
       sodipodi:nodetypes="ccccccccccccccccccccccccccccccccccccc" />
    <path
       style="fill:#ffaef6;fill-opacity:1;stroke:#000000;stroke-width:1px;stroke-linecap:butt;stroke-linejoin:miter;stroke-opacity:1"
       d="m 239.91123,203.26131 3.03046,-4.04061 -4.54569,-2.52538 -2.0203,3.03046 z"
       id="path4754"
       inkscape:connector-curvature="0" />
    <path
       style="fill:none;stroke:#000000;stroke-width:2;stroke-linecap:butt;stroke-linejoin:miter;stroke-miterlimit:4;stroke-opacity:1;stroke-dasharray:2, 2;stroke-dashoffset:0;display:inline"
       d="M 200.71429,339.28571 210,360 l 17.14286,15 16.42857,0 L 250,380 263.57143,377.14286 271.42857,365"
       id="path4787"
       inkscape:connector-curvature="0" />
    <path
       style="fill:none;stroke:#000000;stroke-width:2;stroke-linecap:butt;stroke-linejoin:miter;stroke-miterlimit:4;stroke-opacity:1;stroke-dasharray:2, 2;stroke-dashoffset:0;display:inline"
       d="m 369.28571,395.71429 22.85715,0 11.42857,2.85714 12.14286,-24.28572 11.42857,-5 11.42857,9.28572 7.14286,0.71428 3.57142,-10 L 445,350 l -2.85714,-3.57143 0,-7.85714 5.71428,-5 5.71429,-12.14286 3.57143,-7.14286 15,-12.14285 2.14285,-12.85715 -2.85714,-5 2.85714,-5.71428"
       id="path4789"
       inkscape:connector-curvature="0" />
    <path
       style="fill:none;stroke:#000000;stroke-width:1px;stroke-linecap:butt;stroke-linejoin:miter;stroke-opacity:1"
       d="m 111.57143,12.500003 0,3.57143 -101.07143,0 0,-3.92858"
       id="path5064"
       inkscape:connector-curvature="0" />
    <path
       style="fill:none;stroke:#000000;stroke-width:1;stroke-linecap:butt;stroke-linejoin:miter;stroke-miterlimit:4;stroke-opacity:1;stroke-dasharray:none;display:inline"
       d="m 10.5,19.726467 0,-3.678211 63.117592,0 0,4.04604"
       id="path5064-1"
       inkscape:connector-curvature="0" />
    <text
       xml:space="preserve"
       style="font-size:8px;font-style:normal;font-variant:normal;font-weight:normal;font-stretch:normal;text-align:start;line-height:125%;letter-spacing:0px;word-spacing:0px;writing-mode:lr-tb;text-anchor:start;fill:#000000;fill-opacity:1;stroke:none;font-family:sans-serif;-inkscape-font-specification:sans-serif"
       x="8.2142859"
       y="26.964283"
       id="text5084"
       sodipodi:linespacing="125%"><tspan
         sodipodi:role="line"
         id="tspan5086"
         x="8.2142859"
         y="26.964283">0</tspan></text>
    <text
       xml:space="preserve"
       style="font-size:8px;font-style:normal;font-variant:normal;font-weight:normal;font-stretch:normal;text-align:start;line-height:125%;letter-spacing:0px;word-spacing:0px;writing-mode:lr-tb;text-anchor:start;fill:#000000;fill-opacity:1;stroke:none;font-family:sans-serif;-inkscape-font-specification:sans-serif"
       x="102.85714"
       y="11.943344"
       id="text5088"
       sodipodi:linespacing="125%"><tspan
         sodipodi:role="line"
         id="tspan5090"
         x="102.85714"
         y="11.943344">50mi</tspan></text>
    <text
       xml:space="preserve"
       style="font-size:8px;font-style:normal;font-variant:normal;font-weight:normal;font-stretch:normal;text-align:start;line-height:125%;letter-spacing:0px;word-spacing:0px;writing-mode:lr-tb;text-anchor:start;fill:#000000;fill-opacity:1;stroke:none;display:inline;font-family:sans-serif;-inkscape-font-specification:sans-serif"
       x="8.1939688"
       y="10.440344"
       id="text5084-4"
       sodipodi:linespacing="125%"><tspan
         sodipodi:role="line"
         id="tspan5086-8"
         x="8.1939688"
         y="10.440344">0</tspan></text>
  </g>
  <g
     inkscape:groupmode="layer"
     id="layer7"
     inkscape:label="Lakes and rivers"
     style="display:inline"
     transform="translate(5.2041332,5.7844262)">
    <path
       style="fill:#d6f4f4;fill-opacity:1;stroke:#000000;stroke-opacity:1"
       d="m 453.55849,86.336155 33.0825,-4.293149 5.05076,9.343911 3.53554,5.808377 2.27284,8.838836 2.52538,5.05076 -3.03046,15.9099 9.34391,15.65737 -1.26269,9.34391 -10.10152,0 0,13.63706 -3.53554,2.77792 -7.07106,0.75761 2.27284,9.84899 5.3033,3.53553 1.01015,7.82869 11.8693,-3.03046 9.34391,0.25254 6.06091,4.04061 5.3033,10.35406 4.04061,15.9099 0,4.79823 -6.06091,3.03046 -8.33376,0 -8.33376,-13.38453 -2.52538,-3.78807 -7.07107,0.75762 -1.76777,6.81853 -13.63706,-26.01143 -4.04061,-17.67767 -6.06091,-10.10153 -8.33376,-5.55584 -2.52538,-5.3033 0.25254,-10.6066 -2.52538,-7.57614 -4.79823,-9.59645 -6.31345,-9.59645 -4.79823,-10.10153 2.02031,-9.091369 z"
       id="path4759"
       inkscape:connector-curvature="0" />
    <path
       style="fill:none;stroke:#d6f4f4;stroke-width:2;stroke-linecap:butt;stroke-linejoin:miter;stroke-miterlimit:4;stroke-opacity:1;stroke-dasharray:none"
       d="m 587.90878,178.26004 6.81853,-4.04061 4.29315,-1.26269 6.81853,-12.87945 2.0203,-17.67767 -3.03045,-9.34391 -17.42513,-5.3033 -5.80838,-0.75762 -2.27284,-4.29314 -7.07107,-0.50508 -8.83884,6.06092 -8.83883,-0.50508 -6.31346,-5.55584 -7.3236,1.76777 -7.57615,-1.01016 -3.78807,-15.65736 -4.79822,-6.56599 -8.83884,-3.788074 -3.03045,-5.808377 0.75761,-11.616754 2.52538,-9.343911 -0.25254,-8.08122 3.03046,-8.838835 -1.01015,-7.828683 -2.77792,-2.777919 -12.62691,6.313453 1.51523,6.81853 -4.04061,7.323606 -11.36422,27.021581"
       id="path4761"
       inkscape:connector-curvature="0" />
    <path
       style="fill:none;stroke:#d6f4f4;stroke-width:2;stroke-linecap:butt;stroke-linejoin:miter;stroke-miterlimit:4;stroke-opacity:1;stroke-dasharray:none"
       d="m 503.05597,25.474463 7.57615,6.060916 3.78807,6.313453 1.01015,5.050763"
       id="path4763"
       inkscape:connector-curvature="0"
       sodipodi:nodetypes="cccc" />
    <path
       style="fill:none;stroke:#d6f4f4;stroke-width:2;stroke-linecap:butt;stroke-linejoin:miter;stroke-miterlimit:4;stroke-opacity:1;stroke-dasharray:none"
       d="m 645.99255,380.29055 -3.03045,2.77792 -3.283,0 -5.80838,-2.52539 -3.28299,1.76777 3.53553,9.09137 6.06092,4.54569 1.01015,1.51523 -0.50508,6.56599 -9.09137,3.78807 -9.34391,0.50508 -5.05076,-2.52538 -6.31346,0.75761 -5.3033,3.283 -5.55584,3.78807 -6.31345,-2.77792 -5.05076,0.25254 -8.5863,-4.29315 -3.03046,-7.82868 -3.53553,-6.06092 -5.3033,-5.55584 -1.01016,-8.08122 15.15229,-39.39595 0.50508,-11.86929 -3.283,-9.09137 -14.89975,-0.75762 -8.33376,-5.05076 0.75762,-15.65736 -2.77792,-4.79823 -16.16244,-1.26269 -3.283,-2.52538 -3.28299,-31.31473 4.29315,-12.87944 6.06091,-7.07107 -1.76777,-3.03046 -3.78807,-3.78807 -11.11168,-7.32361"
       id="path4765"
       inkscape:connector-curvature="0" />
    <path
       style="fill:#d6f4f4;fill-opacity:1;stroke:#d6f4f4;stroke-width:2;stroke-linecap:butt;stroke-linejoin:miter;stroke-miterlimit:4;stroke-opacity:1;stroke-dasharray:none"
       d="m 707.10678,165.88567 9.09138,2.0203 5.55583,4.54569 8.08122,2.0203 10.10153,-0.50507 2.0203,-2.02031 7.07107,4.54569 1.01016,-8.08122 0,-6.06092 9.09137,0 10.10152,13.63706 1.51523,-8.08122 -8.58629,-13.63706 -1.01016,-11.61675 -9.59645,5.55584 -4.54568,-1.51523 3.03046,-4.54569 -3.03046,-1.51523 -12.12183,-1.01015 -5.05077,9.09137 -5.55583,1.01016 -8.08122,9.09137 -7.07107,3.53553 z"
       id="path4767"
       inkscape:connector-curvature="0" />
    <path
       style="fill:none;stroke:#d6f4f4;stroke-width:2;stroke-linecap:butt;stroke-linejoin:miter;stroke-miterlimit:4;stroke-opacity:1;stroke-dasharray:none"
       d="m 749.53319,167.4009 9.09137,12.6269 8.5863,15.65737 4.04061,16.66752 -7.07107,23.73858 -8.5863,24.74874 -1.01015,17.67767 -10.10152,21.2132 -13.13199,11.11168 -5.05076,10.10152 4.04061,8.5863 -9.09137,7.07107 -10.10153,-2.52538 -4.04061,6.06091 2.52538,14.14214 5.55584,9.09137 -4.04061,14.64721 3.03046,12.62691 -4.04061,18.18275 -2.02031,20.70812 -5.05076,10.10153 -7.57614,9.59645 4.54568,8.58629 11.61676,3.03046 8.08122,18.18275 -12.12183,18.68782 -8.08122,-14.64721 -5.55584,-3.53554"
       id="path4769"
       inkscape:connector-curvature="0" />
    <path
       style="fill:none;stroke:#d6f4f4;stroke-width:2;stroke-linecap:butt;stroke-linejoin:miter;stroke-miterlimit:4;stroke-opacity:1;stroke-dasharray:none"
       d="m 790.44437,325.99485 3.53553,-2.02031 9.59645,12.12183 15.65736,-1.01015 7.57615,3.53553 3.53553,10.6066 -2.52538,15.65737 -6.06091,17.17259 -2.02031,14.14214 3.53553,9.09137 -0.50507,7.57615 -6.06092,10.10152 0,15.15229 -12.6269,7.57614 -14.14214,-8.58629 -8.5863,6.56599 -5.55583,9.59645 2.52538,10.6066 7.07106,19.1929 -1.51522,8.08122 -18.18275,7.07107 -9.09137,16.66751 -28.28427,14.14214 -5.55584,-0.50508 -8.08122,4.04061 -5.55584,10.6066 -13.63706,8.5863 4.04061,9.59645 -5.05076,3.03046 -9.59645,1.01015 -11.11168,-6.06092 -6.06092,-1.01015 -4.04061,6.56599 2.02031,5.55584 -13.63706,5.05077 -5.55584,5.55583 -4.04061,2.02031 -2.02031,-8.5863 -8.08122,-5.05076 -4.54568,-9.59645 -8.5863,0 -8.08122,-5.05076 -3.03046,-10.6066 -2.0203,-3.53554 -23.73859,-17.17259 -21.71828,0.50508 -7.07106,-1.51523 -23.23351,-18.68783 -6.56599,-13.13198 -7.57615,-0.50507 -8.5863,6.06091 -19.69797,0 -16.16244,-11.11168 -10.10153,0 -4.54568,-3.03046 -19.69798,0.50508 -6.06091,6.56599 -6.56599,-1.01015 -6.06092,-8.08122 -4.04061,-6.06092 -3.03046,-20.70812 -9.09137,-13.63706 -9.59645,-21.71828 -11.11168,-10.6066 -6.56599,-2.02031 -7.57614,-9.09137 -7.07107,-1.51523 -5.55584,4.04061 -9.59645,-7.57614 -7.07107,7.57614 -5.55584,-2.02031 -22.22335,-4.04061 -8.5863,-14.14213 -9.59645,-2.52538 -8.58629,-11.11168 -12.12184,0 -12.6269,-7.57614 -12.12183,-17.67767"
       id="path4771"
       inkscape:connector-curvature="0" />
    <path
       style="fill:none;stroke:#d6f4f4;stroke-width:2;stroke-linecap:butt;stroke-linejoin:miter;stroke-miterlimit:4;stroke-opacity:1;stroke-dasharray:none"
       d="m 131.31983,506.81215 17.67767,-3.03046 12.62691,-7.57614 4.54568,-9.59645 -8.08122,-24.24366 -10.10152,-9.59645 -13.63706,-8.5863 -11.61676,-2.52538 -18.68782,-35.35534 -4.04061,-12.12183 2.02031,-29.29442 3.03045,-11.11168 -9.091368,-13.63706 -2.525382,-9.59645 -16.16244,-4.54568 3.535534,-5.55584 -3.535534,-7.57615 -3.030458,-6.06091 -2.525381,-16.16244"
       id="path4773"
       inkscape:connector-curvature="0" />
    <path
       style="fill:none;stroke:#d6f4f4;stroke-width:2;stroke-linecap:butt;stroke-linejoin:miter;stroke-miterlimit:4;stroke-opacity:1;stroke-dasharray:none"
       d="m 41.921331,557.31978 13.637059,6.56599 2.525381,6.56599 10.101526,7.57615 9.091373,0.50507 8.586296,11.61676 14.142134,0.50507 5.05076,8.08122 57.5787,-7.57614 30.30458,0.50508 9.59645,5.55583 17.17259,16.66752 20.70813,8.5863 13.63706,-2.52538 11.61675,5.55584"
       id="path4775"
       inkscape:connector-curvature="0" />
    <path
       style="fill:none;stroke:#d6f4f4;stroke-width:2;stroke-linecap:butt;stroke-linejoin:miter;stroke-miterlimit:4;stroke-opacity:1;stroke-dasharray:none"
       d="m 221.22341,614.3934 27.27412,-15.65737 13.13198,-4.54568 15.65736,6.56599 14.14214,12.12183 16.16244,12.62691"
       id="path4777"
       inkscape:connector-curvature="0" />
    <path
       style="fill:none;stroke:#d6f4f4;stroke-width:2;stroke-linecap:butt;stroke-linejoin:miter;stroke-miterlimit:4;stroke-opacity:1;stroke-dasharray:none"
       d="m 358.60415,334.58114 3.53554,-2.52538 -2.52538,-7.57614 7.57614,-1.51523 17.17259,0.50508 4.54569,-9.09138 5.05076,-2.0203 19.69798,0.50507 8.08122,-6.06091 -2.52538,-8.08122 -4.54569,-8.08122 -5.55584,-4.54569 -2.52538,-17.67767 -5.55584,-3.03046 -6.06091,-11.11167 -8.08122,0 -8.08123,7.07106 -6.06091,3.03046 -16.66752,0.50508 -13.13198,6.56599 -4.54569,12.12183 1.01016,7.07107 0,5.55584 -9.09138,3.53553 -8.58629,8.5863 -12.12183,2.0203 -10.60661,13.13199 -4.04061,2.52538 -9.09137,1.51523 -3.53553,3.03045 -7.07107,0.50508 -7.07107,-1.01015 -6.56599,-4.04061"
       id="path4779"
       inkscape:connector-curvature="0" />
    <path
       style="fill:none;stroke:#d6f4f4;stroke-width:2;stroke-linecap:butt;stroke-linejoin:miter;stroke-miterlimit:4;stroke-opacity:1;stroke-dasharray:none"
       d="m 688.41896,277.50752 3.53553,-8.58629 -0.50507,-9.09138 -5.55584,-4.54568 -2.52538,-0.50508 -5.55584,5.55584 -22.22336,1.51523 -7.57614,-11.61675 -6.56599,-0.50508 -11.11168,-24.74874 4.54569,-9.09137 19.69797,-13.13198 10.10153,-12.12183 8.08122,-2.02031 4.04061,-8.08122 11.11167,-3.03046 6.06092,-8.08122 11.61675,-5.05076 10.60661,-1.01015"
       id="path4781"
       inkscape:connector-curvature="0" />
    <path
       style="fill:none;stroke:#d6f4f4;stroke-width:2;stroke-linecap:butt;stroke-linejoin:miter;stroke-miterlimit:4;stroke-opacity:1;stroke-dasharray:none"
       d="m 736.40121,143.15724 0.50507,-17.67767 15.65737,-39.395953 6.56599,-27.779195 -1.09944,-58.04044295"
       id="path4783"
       inkscape:connector-curvature="0"
       sodipodi:nodetypes="ccccc" />
    <path
       style="fill:none;stroke:#d6f4f4;stroke-width:2;stroke-linecap:butt;stroke-linejoin:miter;stroke-miterlimit:4;stroke-opacity:1;stroke-dasharray:none"
       d="m 741.45197,149.21815 4.04061,-16.66752 14.14213,-3.03045 8.08122,-16.16244 9.59645,-4.54569 12.62691,5.55584 9.59645,1.01015 5.05076,4.54569 10.10153,2.0203 2.0203,-8.08122 -1.51523,-10.6066 7.07107,-13.131983 6.06092,-4.545687 2.55076,-4.448515"
       id="path4785"
       inkscape:connector-curvature="0"
       sodipodi:nodetypes="cccccccccccccc" />
    <path
       style="fill:#d6f4f4;fill-opacity:1;stroke:none;display:inline;enable-background:new"
       d="m 370.32008,174.87784 2.02031,-2.27284 1.26269,-2.02031 0,-4.54568 0.75761,-1.76777 3.78807,0.50508 2.27285,0 2.52538,-1.26269 3.78807,0 1.51523,2.52538 3.28299,7.07107 0.50508,6.81853 -2.77792,10.85914 -1.26269,12.87944 -5.55584,-7.57614 -2.0203,-2.27285 -1.51523,-4.04061 -2.77792,-5.05076 -3.53554,-4.29315 -2.27284,-1.51523 -1.01015,-2.0203 z"
       id="path3113"
       inkscape:connector-curvature="0" />
  </g>
  <g
     inkscape:groupmode="layer"
     id="layer9"
     inkscape:label="Cities"
     transform="translate(5.2041332,5.7844262)"
     sodipodi:insensitive="true"
     style="display:inline">
    <path
       transform="translate(13.571433,15.71429)"
       sodipodi:type="arc"
       style="fill:#ffffff;fill-opacity:1;stroke:#000000;stroke-width:2;stroke-miterlimit:4;stroke-opacity:1;stroke-dasharray:none;stroke-dashoffset:0;display:inline"
       id="path4796"
       sodipodi:cx="237.14285"
       sodipodi:cy="337.14285"
       sodipodi:rx="9.2857141"
       sodipodi:ry="9.2857141"
       d="m 246.42857,337.14285 a 9.2857141,9.2857141 0 1 1 -18.57143,0 9.2857141,9.2857141 0 1 1 18.57143,0 z" />
    <path
       transform="translate(305.71429,-112.85714)"
       sodipodi:type="arc"
       style="fill:#ffffff;fill-opacity:1;stroke:#000000;stroke-width:2;stroke-miterlimit:4;stroke-opacity:1;stroke-dasharray:none;stroke-dashoffset:0;display:inline"
       id="path4796-5"
       sodipodi:cx="237.14285"
       sodipodi:cy="337.14285"
       sodipodi:rx="9.2857141"
       sodipodi:ry="9.2857141"
       d="m 246.42857,337.14285 a 9.2857141,9.2857141 0 1 1 -18.57143,0 9.2857141,9.2857141 0 1 1 18.57143,0 z" />
    <path
       transform="matrix(0.61805555,0,0,0.61805555,280.21827,-42.301584)"
       sodipodi:type="arc"
       style="fill:#ffffff;fill-opacity:1;stroke:#000000;stroke-width:2;stroke-miterlimit:4;stroke-opacity:1;stroke-dasharray:none;stroke-dashoffset:0;display:inline"
       id="path4796-1"
       sodipodi:cx="237.14285"
       sodipodi:cy="337.14285"
       sodipodi:rx="9.2857141"
       sodipodi:ry="9.2857141"
       d="m 246.42857,337.14285 a 9.2857141,9.2857141 0 1 1 -18.57143,0 9.2857141,9.2857141 0 1 1 18.57143,0 z" />
    <path
       transform="matrix(0.61805555,0,0,0.61805555,130.5754,-42.658726)"
       sodipodi:type="arc"
       style="fill:#ffffff;fill-opacity:1;stroke:#000000;stroke-width:2;stroke-miterlimit:4;stroke-opacity:1;stroke-dasharray:none;stroke-dashoffset:0;display:inline"
       id="path4796-1-4"
       sodipodi:cx="237.14285"
       sodipodi:cy="337.14285"
       sodipodi:rx="9.2857141"
       sodipodi:ry="9.2857141"
       d="m 246.42857,337.14285 a 9.2857141,9.2857141 0 1 1 -18.57143,0 9.2857141,9.2857141 0 1 1 18.57143,0 z" />
    <path
       transform="matrix(0.61805555,0,0,0.61805555,587.00397,-69.801583)"
       sodipodi:type="arc"
       style="fill:#ffffff;fill-opacity:1;stroke:#000000;stroke-width:2;stroke-miterlimit:4;stroke-opacity:1;stroke-dasharray:none;stroke-dashoffset:0;display:inline"
       id="path4796-1-5"
       sodipodi:cx="237.14285"
       sodipodi:cy="337.14285"
       sodipodi:rx="9.2857141"
       sodipodi:ry="9.2857141"
       d="m 246.42857,337.14285 a 9.2857141,9.2857141 0 1 1 -18.57143,0 9.2857141,9.2857141 0 1 1 18.57143,0 z" />
    <path
       transform="matrix(0.61805555,0,0,0.61805555,186.28969,95.912703)"
       sodipodi:type="arc"
       style="fill:#ffffff;fill-opacity:1;stroke:#000000;stroke-width:2;stroke-miterlimit:4;stroke-opacity:1;stroke-dasharray:none;stroke-dashoffset:0;display:inline"
       id="path4796-1-41"
       sodipodi:cx="237.14285"
       sodipodi:cy="337.14285"
       sodipodi:rx="9.2857141"
       sodipodi:ry="9.2857141"
       d="m 246.42857,337.14285 a 9.2857141,9.2857141 0 1 1 -18.57143,0 9.2857141,9.2857141 0 1 1 18.57143,0 z" />
    <path
       transform="matrix(0.61805555,0,0,0.61805555,324.86112,193.05556)"
       sodipodi:type="arc"
       style="fill:#ffffff;fill-opacity:1;stroke:#000000;stroke-width:2;stroke-miterlimit:4;stroke-opacity:1;stroke-dasharray:none;stroke-dashoffset:0;display:inline"
       id="path4796-1-1"
       sodipodi:cx="237.14285"
       sodipodi:cy="337.14285"
       sodipodi:rx="9.2857141"
       sodipodi:ry="9.2857141"
       d="m 246.42857,337.14285 a 9.2857141,9.2857141 0 1 1 -18.57143,0 9.2857141,9.2857141 0 1 1 18.57143,0 z" />
    <path
       transform="matrix(0.61805555,0,0,0.61805555,282.00397,273.76985)"
       sodipodi:type="arc"
       style="fill:#ffffff;fill-opacity:1;stroke:#000000;stroke-width:2;stroke-miterlimit:4;stroke-opacity:1;stroke-dasharray:none;stroke-dashoffset:0;display:inline"
       id="path4796-1-8"
       sodipodi:cx="237.14285"
       sodipodi:cy="337.14285"
       sodipodi:rx="9.2857141"
       sodipodi:ry="9.2857141"
       d="m 246.42857,337.14285 a 9.2857141,9.2857141 0 1 1 -18.57143,0 9.2857141,9.2857141 0 1 1 18.57143,0 z" />
    <path
       transform="matrix(0.61805555,0,0,0.61805555,449.14683,317.34127)"
       sodipodi:type="arc"
       style="fill:#ffffff;fill-opacity:1;stroke:#000000;stroke-width:2;stroke-miterlimit:4;stroke-opacity:1;stroke-dasharray:none;stroke-dashoffset:0;display:inline"
       id="path4796-1-9"
       sodipodi:cx="237.14285"
       sodipodi:cy="337.14285"
       sodipodi:rx="9.2857141"
       sodipodi:ry="9.2857141"
       d="m 246.42857,337.14285 a 9.2857141,9.2857141 0 1 1 -18.57143,0 9.2857141,9.2857141 0 1 1 18.57143,0 z" />
    <path
       transform="matrix(0.61805555,0,0,0.61805555,559.14683,351.62699)"
       sodipodi:type="arc"
       style="fill:#ffffff;fill-opacity:1;stroke:#000000;stroke-width:2;stroke-miterlimit:4;stroke-opacity:1;stroke-dasharray:none;stroke-dashoffset:0;display:inline"
       id="path4796-1-51"
       sodipodi:cx="237.14285"
       sodipodi:cy="337.14285"
       sodipodi:rx="9.2857141"
       sodipodi:ry="9.2857141"
       d="m 246.42857,337.14285 a 9.2857141,9.2857141 0 1 1 -18.57143,0 9.2857141,9.2857141 0 1 1 18.57143,0 z" />
    <path
       transform="matrix(0.61805555,0,0,0.61805555,640.5754,180.9127)"
       sodipodi:type="arc"
       style="fill:#ffffff;fill-opacity:1;stroke:#000000;stroke-width:2;stroke-miterlimit:4;stroke-opacity:1;stroke-dasharray:none;stroke-dashoffset:0;display:inline"
       id="path4796-1-7"
       sodipodi:cx="237.14285"
       sodipodi:cy="337.14285"
       sodipodi:rx="9.2857141"
       sodipodi:ry="9.2857141"
       d="m 246.42857,337.14285 a 9.2857141,9.2857141 0 1 1 -18.57143,0 9.2857141,9.2857141 0 1 1 18.57143,0 z" />
    <path
       transform="matrix(0.61805555,0,0,0.61805555,114.14683,308.76985)"
       sodipodi:type="arc"
       style="fill:#ffffff;fill-opacity:1;stroke:#000000;stroke-width:2;stroke-miterlimit:4;stroke-opacity:1;stroke-dasharray:none;stroke-dashoffset:0;display:inline"
       id="path4796-1-52"
       sodipodi:cx="237.14285"
       sodipodi:cy="337.14285"
       sodipodi:rx="9.2857141"
       sodipodi:ry="9.2857141"
       d="m 246.42857,337.14285 a 9.2857141,9.2857141 0 1 1 -18.57143,0 9.2857141,9.2857141 0 1 1 18.57143,0 z" />
    <path
       transform="matrix(0.61805555,0,0,0.61805555,32.003972,358.76985)"
       sodipodi:type="arc"
       style="fill:#ffffff;fill-opacity:1;stroke:#000000;stroke-width:2;stroke-miterlimit:4;stroke-opacity:1;stroke-dasharray:none;stroke-dashoffset:0;display:inline"
       id="path4796-1-3"
       sodipodi:cx="237.14285"
       sodipodi:cy="337.14285"
       sodipodi:rx="9.2857141"
       sodipodi:ry="9.2857141"
       d="m 246.42857,337.14285 a 9.2857141,9.2857141 0 1 1 -18.57143,0 9.2857141,9.2857141 0 1 1 18.57143,0 z" />
    <path
       transform="matrix(0.61805555,0,0,0.61805555,73.432544,181.62699)"
       sodipodi:type="arc"
       style="fill:#ffffff;fill-opacity:1;stroke:#000000;stroke-width:2;stroke-miterlimit:4;stroke-opacity:1;stroke-dasharray:none;stroke-dashoffset:0;display:inline"
       id="path4796-1-18"
       sodipodi:cx="237.14285"
       sodipodi:cy="337.14285"
       sodipodi:rx="9.2857141"
       sodipodi:ry="9.2857141"
       d="m 246.42857,337.14285 a 9.2857141,9.2857141 0 1 1 -18.57143,0 9.2857141,9.2857141 0 1 1 18.57143,0 z" />
    <path
       transform="matrix(0.61805555,0,0,0.61805555,-111.56746,194.48413)"
       sodipodi:type="arc"
       style="fill:#ffffff;fill-opacity:1;stroke:#000000;stroke-width:2;stroke-miterlimit:4;stroke-opacity:1;stroke-dasharray:none;stroke-dashoffset:0;display:inline"
       id="path4796-1-43"
       sodipodi:cx="237.14285"
       sodipodi:cy="337.14285"
       sodipodi:rx="9.2857141"
       sodipodi:ry="9.2857141"
       d="m 246.42857,337.14285 a 9.2857141,9.2857141 0 1 1 -18.57143,0 9.2857141,9.2857141 0 1 1 18.57143,0 z" />
    <path
       transform="matrix(0.61805555,0,0,0.61805555,-61.567456,105.9127)"
       sodipodi:type="arc"
       style="fill:#ffffff;fill-opacity:1;stroke:#000000;stroke-width:2;stroke-miterlimit:4;stroke-opacity:1;stroke-dasharray:none;stroke-dashoffset:0;display:inline"
       id="path4796-1-30"
       sodipodi:cx="237.14285"
       sodipodi:cy="337.14285"
       sodipodi:rx="9.2857141"
       sodipodi:ry="9.2857141"
       d="m 246.42857,337.14285 a 9.2857141,9.2857141 0 1 1 -18.57143,0 9.2857141,9.2857141 0 1 1 18.57143,0 z" />
    <path
       transform="matrix(0.61805555,0,0,0.61805555,-10.138885,-29.801583)"
       sodipodi:type="arc"
       style="fill:#ffffff;fill-opacity:1;stroke:#000000;stroke-width:2;stroke-miterlimit:4;stroke-opacity:1;stroke-dasharray:none;stroke-dashoffset:0;display:inline"
       id="path4796-1-53"
       sodipodi:cx="237.14285"
       sodipodi:cy="337.14285"
       sodipodi:rx="9.2857141"
       sodipodi:ry="9.2857141"
       d="m 246.42857,337.14285 a 9.2857141,9.2857141 0 1 1 -18.57143,0 9.2857141,9.2857141 0 1 1 18.57143,0 z" />
    <text
       xml:space="preserve"
       style="font-size:24px;font-style:normal;font-variant:normal;font-weight:normal;font-stretch:normal;text-align:start;line-height:100%;letter-spacing:0px;word-spacing:0px;writing-mode:lr-tb;text-anchor:start;fill:#000000;fill-opacity:1;stroke:none;font-family:Sans;-inkscape-font-specification:sans-serif"
       x="124.46702"
       y="203.46918"
       id="text4951"
       sodipodi:linespacing="100%"><tspan
         sodipodi:role="line"
         id="tspan4953"
         x="124.46702"
         y="203.46918">Arensburg</tspan></text>
    <text
       xml:space="preserve"
       style="font-size:24px;font-style:normal;font-variant:normal;font-weight:normal;font-stretch:normal;text-align:start;line-height:100%;letter-spacing:0px;word-spacing:0px;writing-mode:lr-tb;text-anchor:start;fill:#000000;fill-opacity:1;stroke:none;font-family:Sans;-inkscape-font-specification:sans-serif"
       x="287.85715"
       y="170.71429"
       id="text4955"
       sodipodi:linespacing="100%"><tspan
         sodipodi:role="line"
         id="tspan4957"
         x="287.85715"
         y="170.71429">Pernau</tspan></text>
    <text
       xml:space="preserve"
       style="font-size:24px;font-style:normal;font-variant:normal;font-weight:normal;font-stretch:normal;text-align:start;line-height:100%;letter-spacing:0px;word-spacing:0px;writing-mode:lr-tb;text-anchor:start;fill:#000000;fill-opacity:1;stroke:none;font-family:sans-serif;-inkscape-font-specification:sans-serif"
       x="388.14285"
       y="191.57143"
       id="text4959"
       sodipodi:linespacing="100%"><tspan
         sodipodi:role="line"
         id="tspan4961"
         x="388.14285"
         y="191.57143">Dorpat</tspan></text>
    <text
       xml:space="preserve"
       style="font-size:24px;font-style:normal;font-variant:normal;font-weight:normal;font-stretch:normal;text-align:start;line-height:100%;letter-spacing:0px;word-spacing:0px;writing-mode:lr-tb;text-anchor:start;fill:#000000;fill-opacity:1;stroke:none;font-family:sans-serif;-inkscape-font-specification:sans-serif"
       x="556.14288"
       y="232.14285"
       id="text4963"
       sodipodi:linespacing="100%"><tspan
         sodipodi:role="line"
         id="tspan4965"
         x="556.14288"
         y="232.14285"
         style="font-size:24px;font-style:normal;font-variant:normal;font-weight:normal;font-stretch:normal;text-align:start;line-height:100%;writing-mode:lr-tb;text-anchor:start;font-family:sans-serif;-inkscape-font-specification:sans-serif">Pskov</tspan></text>
    <text
       xml:space="preserve"
       style="font-size:24px;font-style:normal;font-variant:normal;font-weight:normal;font-stretch:normal;text-align:start;line-height:100%;letter-spacing:0px;word-spacing:0px;writing-mode:lr-tb;text-anchor:start;fill:#000000;fill-opacity:1;stroke:none;font-family:sans-serif;-inkscape-font-specification:sans-serif"
       x="263.85715"
       y="358.57144"
       id="text4967"
       sodipodi:linespacing="100%"><tspan
         sodipodi:role="line"
         id="tspan4969"
         x="263.85715"
         y="358.57144"
         style="font-size:24px;font-style:normal;font-variant:normal;font-weight:normal;font-stretch:normal;text-align:start;line-height:100%;writing-mode:lr-tb;text-anchor:start;font-family:sans-serif;-inkscape-font-specification:sans-serif">Riga</tspan></text>
    <text
       xml:space="preserve"
       style="font-size:24px;font-style:normal;font-variant:normal;font-weight:normal;font-stretch:normal;text-align:start;line-height:100%;letter-spacing:0px;word-spacing:0px;writing-mode:lr-tb;text-anchor:start;fill:#000000;fill-opacity:1;stroke:none;font-family:sans-serif;-inkscape-font-specification:sans-serif"
       x="614.85712"
       y="144.28571"
       id="text4971"
       sodipodi:linespacing="100%"><tspan
         sodipodi:role="line"
         id="tspan4973"
         x="614.85712"
         y="144.28571">Novgorod</tspan></text>
    <text
       xml:space="preserve"
       style="font-size:24px;font-style:normal;font-variant:normal;font-weight:normal;font-stretch:normal;text-align:start;line-height:100%;letter-spacing:0px;word-spacing:0px;writing-mode:lr-tb;text-anchor:start;fill:#000000;fill-opacity:1;stroke:none;font-family:sans-serif;-inkscape-font-specification:sans-serif"
       x="720.85712"
       y="380.71429"
       id="text4975"
       sodipodi:linespacing="100%"><tspan
         sodipodi:role="line"
         id="tspan4977"
         x="720.85712"
         y="380.71429">Toropets</tspan></text>
    <text
       xml:space="preserve"
       style="font-size:24px;font-style:normal;font-variant:normal;font-weight:normal;font-stretch:normal;text-align:start;line-height:100%;letter-spacing:0px;word-spacing:0px;writing-mode:lr-tb;text-anchor:start;fill:#000000;fill-opacity:1;stroke:none;font-family:sans-serif;-inkscape-font-specification:sans-serif"
       x="603.71429"
       y="531.85712"
       id="text4979"
       sodipodi:linespacing="100%"><tspan
         sodipodi:role="line"
         id="tspan4981"
         x="603.71429"
         y="531.85712">Polotsk</tspan></text>
    <text
       xml:space="preserve"
       style="font-size:24px;font-style:normal;font-variant:normal;font-weight:normal;font-stretch:normal;text-align:start;line-height:100%;letter-spacing:0px;word-spacing:0px;writing-mode:lr-tb;text-anchor:start;fill:#000000;fill-opacity:1;stroke:none;font-family:sans-serif;-inkscape-font-specification:sans-serif"
       x="668.28571"
       y="583.28571"
       id="text4983"
       sodipodi:linespacing="100%"><tspan
         sodipodi:role="line"
         id="tspan4985"
         x="668.28571"
         y="583.28571">Vitebsk</tspan></text>
    <text
       xml:space="preserve"
       style="font-size:24px;font-style:normal;font-variant:normal;font-weight:normal;font-stretch:normal;text-align:start;line-height:100%;letter-spacing:0px;word-spacing:0px;writing-mode:lr-tb;text-anchor:start;fill:#000000;fill-opacity:1;stroke:none;font-family:sans-serif;-inkscape-font-specification:sans-serif"
       x="269.42856"
       y="523"
       id="text4987"
       sodipodi:linespacing="100%"><tspan
         sodipodi:role="line"
         id="tspan4989"
         x="269.42856"
         y="523">Upytė</tspan></text>
    <text
       xml:space="preserve"
       style="font-size:24px;font-style:normal;font-variant:normal;font-weight:normal;font-stretch:normal;text-align:start;line-height:100%;letter-spacing:0px;word-spacing:0px;writing-mode:lr-tb;text-anchor:start;fill:#000000;fill-opacity:1;stroke:none;font-family:sans-serif;-inkscape-font-specification:sans-serif"
       x="188"
       y="574.14288"
       id="text4991"
       sodipodi:linespacing="100%"><tspan
         sodipodi:role="line"
         id="tspan4993"
         x="188"
         y="574.14288">Raseiniai</tspan></text>
    <text
       xml:space="preserve"
       style="font-size:24px;font-style:normal;font-variant:normal;font-weight:normal;font-stretch:normal;text-align:start;line-height:100%;letter-spacing:0px;word-spacing:0px;writing-mode:lr-tb;text-anchor:start;fill:#000000;fill-opacity:1;stroke:none;font-family:sans-serif;-inkscape-font-specification:sans-serif"
       x="147.14285"
       y="397.57141"
       id="text4995"
       sodipodi:linespacing="100%"><tspan
         sodipodi:role="line"
         id="tspan4997"
         x="147.14285"
         y="397.57141">Mitau</tspan></text>
    <text
       xml:space="preserve"
       style="font-size:24px;font-style:normal;font-variant:normal;font-weight:normal;font-stretch:normal;text-align:start;line-height:100%;letter-spacing:0px;word-spacing:0px;writing-mode:lr-tb;text-anchor:start;fill:#000000;fill-opacity:1;stroke:none;font-family:sans-serif;-inkscape-font-specification:sans-serif"
       x="74"
       y="303.28571"
       id="text4999"
       sodipodi:linespacing="100%"><tspan
         sodipodi:role="line"
         id="tspan5001"
         x="74"
         y="303.28571">Piltene</tspan></text>
    <text
       xml:space="preserve"
       style="font-size:24px;font-style:normal;font-variant:normal;font-weight:normal;font-stretch:normal;text-align:start;line-height:100%;letter-spacing:0px;word-spacing:0px;writing-mode:lr-tb;text-anchor:start;fill:#000000;fill-opacity:1;stroke:none;font-family:sans-serif;-inkscape-font-specification:sans-serif"
       x="341"
       y="309.28571"
       id="text5003"
       sodipodi:linespacing="100%"><tspan
         sodipodi:role="line"
         id="tspan5005"
         x="341"
         y="309.28571">Cēsis</tspan></text>
    <text
       xml:space="preserve"
       style="font-size:24px;font-style:normal;font-variant:normal;font-weight:normal;font-stretch:normal;text-align:start;line-height:100%;letter-spacing:0px;word-spacing:0px;writing-mode:lr-tb;text-anchor:start;fill:#000000;fill-opacity:1;stroke:none;font-family:sans-serif;-inkscape-font-specification:sans-serif"
       x="8.5714283"
       y="428.85712"
       id="text5007"
       sodipodi:linespacing="100%"><tspan
         sodipodi:role="line"
         id="tspan5009"
         x="8.5714283"
         y="428.85712">Libau</tspan></text>
    <text
       xml:space="preserve"
       style="font-size:24px;font-style:normal;font-variant:normal;font-weight:normal;font-stretch:normal;text-align:start;line-height:125%;letter-spacing:0px;word-spacing:0px;writing-mode:lr-tb;text-anchor:start;fill:#000000;fill-opacity:1;stroke:none;font-family:sans-serif;-inkscape-font-specification:sans-serif"
       x="382.94934"
       y="469.43649"
       id="text5056"
       sodipodi:linespacing="125%"><tspan
         sodipodi:role="line"
         id="tspan5058"
         x="382.94934"
         y="469.43649">Daugavpils</tspan></text>
    <text
       xml:space="preserve"
       style="font-size:24px;font-style:normal;font-variant:normal;font-weight:normal;font-stretch:normal;text-align:start;line-height:125%;letter-spacing:0px;word-spacing:0px;writing-mode:lr-tb;text-anchor:start;fill:#000000;fill-opacity:1;stroke:none;font-family:sans-serif;-inkscape-font-specification:sans-serif"
       x="428.80975"
       y="421.0304"
       id="text5060"
       sodipodi:linespacing="125%"><tspan
         sodipodi:role="line"
         id="tspan5062"
         x="428.80975"
         y="421.0304">Rēzekne</tspan></text>
  </g>
</svg>
